<?xml version="1.0" encoding="utf-8"?>
<!-- Generator: Adobe Illustrator 24.0.1, SVG Export Plug-In . SVG Version: 6.00 Build 0)  -->
<svg version="1.1" id="Layer_1" xmlns="http://www.w3.org/2000/svg" xmlns:xlink="http://www.w3.org/1999/xlink" x="0px" y="0px"
	 viewBox="0 0 30 30" style="enable-background:new 0 0 30 30;" xml:space="preserve">
<style type="text/css">
	.st0{fill:#7F7F7F;}
</style>
<g>
	<path class="st0" d="M27.76,13.6h-2.05c-0.13-0.93-0.39-1.82-0.74-2.66c-0.83-1.96-2.21-3.62-3.94-4.79
		c-1.32-0.89-2.86-1.51-4.51-1.75V2.35c0-0.48-0.39-0.88-0.88-0.88h-1.4c-0.48,0-0.88,0.39-0.88,0.88V4.4
		c-0.93,0.13-1.82,0.39-2.66,0.74C8.74,5.97,7.08,7.35,5.9,9.09c-0.89,1.32-1.51,2.86-1.75,4.51H2.11c-0.48,0-0.88,0.39-0.88,0.88
		v1.4c0,0.48,0.39,0.88,0.88,0.88h2.05c0.13,0.93,0.39,1.82,0.74,2.66c0.83,1.96,2.21,3.62,3.94,4.79c1.32,0.89,2.86,1.51,4.51,1.75
		v2.05c0,0.48,0.39,0.88,0.88,0.88h1.4c0.48,0,0.88-0.39,0.88-0.88v-2.05c0.93-0.13,1.82-0.39,2.66-0.74
		c1.96-0.83,3.62-2.21,4.79-3.94c0.89-1.32,1.51-2.86,1.75-4.51h2.05c0.48,0,0.88-0.39,0.88-0.88v-1.4
		C28.64,13.99,28.24,13.6,27.76,13.6z M22.06,18.19c-0.59,1.39-1.57,2.57-2.8,3.4c-0.82,0.55-1.75,0.95-2.75,1.16v-1.78
		c0-0.48-0.39-0.88-0.88-0.88h-1.4c-0.48,0-0.88,0.39-0.88,0.88v1.78c-0.5-0.1-0.97-0.25-1.43-0.45c-1.39-0.59-2.57-1.57-3.4-2.8
		c-0.55-0.82-0.95-1.74-1.16-2.74h1.78c0.48,0,0.88-0.39,0.88-0.88v-1.4c0-0.48-0.39-0.88-0.88-0.88H7.36
		c0.1-0.5,0.25-0.97,0.45-1.43c0.59-1.39,1.57-2.57,2.8-3.4c0.82-0.55,1.74-0.95,2.74-1.16v1.77c0,0.48,0.39,0.88,0.88,0.88h1.4
		c0.48,0,0.88-0.39,0.88-0.88V7.61c0.5,0.1,0.97,0.25,1.43,0.45c1.39,0.59,2.57,1.57,3.4,2.8c0.55,0.82,0.95,1.75,1.16,2.75h-1.77
		c-0.48,0-0.88,0.39-0.88,0.88v1.4c0,0.48,0.39,0.88,0.88,0.88h1.77C22.4,17.25,22.25,17.73,22.06,18.19z"/>
</g>
</svg>
